<svg xmlns="http://www.w3.org/2000/svg" width="300" height="500" viewBox="0 0 300 500">
<style>.a{fill:#009245;stroke-width:2;stroke:#000;}</style>
<polygon points="170.8 257 133.3 182 170.8 107 245.8 107 283.3 182 245.8 257 " class="a"/>
<text transform="matrix(1 0 0 1 182.416 182)" font-family="'MyriadPro-Regular'" font-size="18">  Courses</text>
<polygon points="45.8 344 8.3 269 45.8 194 120.8 194 158.3 269 120.8 344 " class="a"/>
<text transform="matrix(1 0 0 1 61.0981 266)" font-family="'MyriadPro-Regular'" font-size="18">  PLTW</text>
<polygon points="170.8 425 133.3 350 170.8 275 245.8 275 283.3 350 245.8 425 " class="a"/>
<text transform="matrix(1 0 0 1 182.877 336.9063)">
<tspan font-family="'MyriadPro-Regular'" font-size="18">  About </tspan>
<tspan x="16" y="21.6" font-family="'MyriadPro-Regular'" font-size="18">  Us</tspan>
</text>
<polygon points="45.8 180 8.3 105 45.8 30 120.8 30 158.3 105 120.8 180 " class="a"/>
<text transform="matrix(1 0 0 1 61.0981 107)" font-family="'MyriadPro-Regular'" font-size="18">  Home</text>
</svg>