<?xml version="1.0" encoding="UTF-8"?>
<!DOCTYPE svg  PUBLIC '-//W3C//DTD SVG 1.1//EN'  'http://www.w3.org/Graphics/SVG/1.1/DTD/svg11.dtd'>
<svg enable-background="new 0 0 400 1280" version="1.1" viewBox="0 0 400 1280" xml:space="preserve" xmlns="http://www.w3.org/2000/svg">
		<polygon points="236.4 658 182.54 550.5 236.4 443 344.1 443 397.96 550.5 344.1 658" fill="#009245"/>
		<path d="m344.99 661h-109.48l-54.572-109.5 54.572-109.5h109.48l54.574 109.5-54.574 109.5zm-107.7-4h105.93l53.138-106-53.138-106h-105.93l-53.136 106 53.136 106z"/>
		<path d="m267.23 550.6c-0.827 0.414-2.482 0.827-4.604 0.827-4.913 0-8.611-3.103-8.611-8.817 0-5.455 3.698-9.153 9.103-9.153 2.173 0 3.543 0.465 4.137 0.776l-0.542 1.835c-0.853-0.413-2.069-0.725-3.518-0.725-4.084 0-6.799 2.611-6.799 7.189 0 4.267 2.456 7.007 6.696 7.007 1.371 0 2.768-0.283 3.671-0.724l0.467 1.785z"/>
		<path d="m281.01 544.81c0 4.628-3.207 6.646-6.231 6.646-3.388 0-5.999-2.482-5.999-6.438 0-4.19 2.74-6.645 6.205-6.645 3.594 0 6.025 2.611 6.025 6.437zm-9.93 0.128c0 2.742 1.578 4.812 3.802 4.812 2.172 0 3.801-2.042 3.801-4.862 0-2.119-1.061-4.81-3.75-4.81s-3.853 2.482-3.853 4.86z"/>
		<path d="m294.35 547.76c0 1.292 0.025 2.433 0.103 3.413h-2.017l-0.13-2.041h-0.052c-0.595 1.006-1.913 2.326-4.138 2.326-1.964 0-4.317-1.087-4.317-5.482v-7.317h2.275v6.931c0 2.379 0.725 3.98 2.793 3.98 1.524 0 2.584-1.059 3-2.068 0.128-0.336 0.206-0.749 0.206-1.163v-7.68h2.276v9.101z"/>
		<path d="m298.12 542.56c0-1.474-0.026-2.741-0.104-3.904h1.99l0.079 2.458h0.104c0.567-1.682 1.938-2.741 3.463-2.741 0.259 0 0.44 0.025 0.647 0.077v2.146c-0.233-0.053-0.467-0.077-0.776-0.077-1.604 0-2.74 1.215-3.051 2.92-0.052 0.312-0.104 0.673-0.104 1.061v6.672h-2.249v-8.612z"/>
		<path d="m306.26 548.85c0.673 0.44 1.861 0.907 3 0.907 1.654 0 2.43-0.827 2.43-1.863 0-1.085-0.646-1.68-2.328-2.3-2.249-0.803-3.31-2.044-3.31-3.543 0-2.016 1.63-3.671 4.32-3.671 1.266 0 2.378 0.361 3.076 0.773l-0.569 1.655c-0.491-0.309-1.396-0.724-2.56-0.724-1.346 0-2.094 0.777-2.094 1.706 0 1.034 0.748 1.5 2.378 2.121 2.172 0.828 3.283 1.914 3.283 3.775 0 2.197-1.706 3.749-4.68 3.749-1.37 0-2.637-0.337-3.518-0.853l0.572-1.732z"/>
		<path d="m318.08 545.33c0.052 3.078 2.017 4.344 4.292 4.344 1.63 0 2.611-0.283 3.465-0.646l0.389 1.628c-0.802 0.363-2.173 0.776-4.164 0.776-3.853 0-6.153-2.534-6.153-6.308 0-3.776 2.224-6.749 5.868-6.749 4.087 0 5.173 3.593 5.173 5.894 0 0.467-0.052 0.828-0.079 1.061h-8.791zm6.671-1.627c0.025-1.449-0.595-3.699-3.153-3.699-2.303 0-3.31 2.121-3.491 3.699h6.644z"/>
		<path d="m329.45 548.85c0.672 0.44 1.86 0.907 2.998 0.907 1.655 0 2.433-0.827 2.433-1.863 0-1.085-0.648-1.68-2.328-2.3-2.25-0.803-3.311-2.044-3.311-3.543 0-2.016 1.63-3.671 4.318-3.671 1.267 0 2.38 0.361 3.078 0.773l-0.569 1.655c-0.49-0.309-1.396-0.724-2.562-0.724-1.343 0-2.094 0.777-2.094 1.706 0 1.034 0.751 1.5 2.38 2.121 2.173 0.828 3.284 1.914 3.284 3.775 0 2.197-1.707 3.749-4.68 3.749-1.372 0-2.639-0.337-3.518-0.853l0.571-1.732z"/>
		<polygon points="56.886 783 3.032 676 56.886 569 164.59 569 218.45 676 164.59 783" fill="#009245"/>
		<path d="m165.48 786h-109.48l-54.572-109.5 54.572-109.5h109.48l54.576 109.5-54.576 109.5zm-107.7-4h105.93l53.138-106-53.138-106h-105.93l-53.136 106 53.136 106z"/>
		<path d="m80.831 654.58c1.085-0.179 2.507-0.336 4.318-0.336 2.223 0 3.852 0.518 4.886 1.449 0.957 0.827 1.526 2.094 1.526 3.646 0 1.577-0.466 2.818-1.345 3.724-1.189 1.268-3.128 1.913-5.326 1.913-0.672 0-1.293-0.025-1.81-0.154v6.979h-2.249v-17.221zm2.249 8.404c0.491 0.129 1.111 0.182 1.862 0.182 2.714 0 4.369-1.318 4.369-3.725 0-2.3-1.629-3.413-4.111-3.413-0.982 0-1.732 0.077-2.12 0.182v6.774z"/>
		<path d="m94.583 654.38h2.25v15.541h7.447v1.887h-9.697v-17.428z"/>
		<path d="m107.82 656.29h-5.3v-1.915h12.903v1.915h-5.326v15.513h-2.277v-15.513z"/>
		<path d="m121.23 671.8l-4.422-17.428h2.379l2.068 8.818c0.517 2.173 0.983 4.344 1.292 6.025h0.052c0.285-1.733 0.828-3.802 1.422-6.051l2.327-8.793h2.354l2.12 8.845c0.491 2.068 0.957 4.137 1.216 5.973h0.051c0.363-1.912 0.854-3.854 1.397-6.024l2.301-8.793h2.302l-4.939 17.428h-2.352l-2.199-9.076c-0.542-2.223-0.905-3.929-1.137-5.688h-0.052c-0.31 1.734-0.698 3.439-1.345 5.688l-2.482 9.076h-2.353z"/>
		<polygon points="236.4 900 182.54 792.5 236.4 685 344.1 685 397.96 792.5 344.1 900" fill="#009245"/>
		<path d="m344.99 902h-109.48l-54.572-109.5 54.572-109.5h109.48l54.574 109.5-54.574 109.5zm-107.7-4h105.93l53.138-105.5-53.138-105.5h-105.93l-53.136 105.5 53.136 105.5z"/>
		<path d="m258.57 768.15l-1.81 5.481h-2.328l5.922-17.428h2.715l5.947 17.428h-2.404l-1.862-5.481h-6.18zm5.715-1.756l-1.707-5.018c-0.388-1.137-0.645-2.172-0.904-3.18h-0.053c-0.258 1.033-0.543 2.094-0.879 3.154l-1.707 5.043h5.25z"/>
		<path d="m271.32 773.63c0.053-0.853 0.104-2.119 0.104-3.23v-15.126h2.251v7.859h0.051c0.803-1.396 2.249-2.301 4.267-2.301 3.103 0 5.302 2.585 5.276 6.387 0 4.472-2.819 6.697-5.612 6.697-1.81 0-3.259-0.699-4.188-2.354h-0.078l-0.104 2.068h-1.967zm2.355-5.016c0 0.285 0.051 0.569 0.103 0.828 0.439 1.576 1.758 2.662 3.412 2.662 2.381 0 3.803-1.938 3.803-4.809 0-2.509-1.293-4.655-3.724-4.655-1.551 0-3 1.061-3.465 2.795-0.053 0.257-0.129 0.567-0.129 0.929v2.25z"/>
		<path d="m297.45 767.27c0 4.628-3.206 6.646-6.232 6.646-3.385 0-5.999-2.483-5.999-6.439 0-4.188 2.742-6.645 6.207-6.645 3.593 1e-3 6.024 2.612 6.024 6.438zm-9.93 0.129c0 2.741 1.578 4.811 3.801 4.811 2.173 0 3.8-2.042 3.8-4.86 0-2.121-1.058-4.812-3.748-4.812-2.688 0-3.853 2.483-3.853 4.861z"/>
		<path d="m310.79 770.22c0 1.294 0.027 2.432 0.104 3.413h-2.017l-0.129-2.041h-0.052c-0.594 1.007-1.913 2.327-4.137 2.327-1.965 0-4.319-1.088-4.319-5.483v-7.317h2.275v6.932c0 2.378 0.725 3.981 2.793 3.981 1.527 0 2.587-1.061 2.999-2.068 0.131-0.338 0.208-0.751 0.208-1.165v-7.68h2.274v9.101z"/>
		<path d="m317.3 757.52v3.593h3.258v1.733h-3.258v6.749c0 1.551 0.438 2.431 1.706 2.431 0.596 0 1.034-0.078 1.318-0.157l0.104 1.708c-0.438 0.181-1.137 0.31-2.019 0.31-1.059 0-1.913-0.336-2.454-0.957-0.647-0.672-0.88-1.783-0.88-3.258v-6.825h-1.938v-1.733h1.938v-2.999l2.225-0.595z"/>
		<path d="m281.06 787.23v10.316c0 3.903 1.732 5.559 4.059 5.559 2.587 0 4.241-1.705 4.241-5.559v-10.316h2.275v10.162c0 5.352-2.818 7.551-6.594 7.551-3.568 0-6.256-2.044-6.256-7.448v-10.265h2.275z"/>
		<path d="m294.99 802.33c0.672 0.439 1.861 0.904 2.998 0.904 1.655 0 2.433-0.827 2.433-1.86 0-1.087-0.648-1.683-2.328-2.302-2.25-0.803-3.31-2.042-3.31-3.543 0-2.017 1.63-3.672 4.317-3.672 1.267 0 2.381 0.362 3.079 0.776l-0.569 1.654c-0.491-0.31-1.397-0.723-2.562-0.723-1.344 0-2.095 0.774-2.095 1.706 0 1.034 0.751 1.499 2.38 2.121 2.172 0.827 3.284 1.912 3.284 3.774 0 2.196-1.707 3.748-4.68 3.748-1.371 0-2.639-0.336-3.518-0.854l0.571-1.729z"/>
		<polygon points="56.886 548 3.032 440.5 56.886 333 164.59 333 218.45 440.5 164.59 548" fill="#009245"/>
		<path d="m165.48 549h-109.48l-54.572-109 54.572-109h109.48l54.576 109-54.576 109zm-107.7-2h105.93l53.138-106.5-53.137-106.5h-105.93l-53.136 106.5 53.136 106.5z"/>
		<path d="m83.08 426.04v7.292h8.429v-7.292h2.275v17.428h-2.275v-8.17h-8.429v8.17h-2.249v-17.428h2.249z"/>
		<path d="m108.93 437.11c0 4.628-3.207 6.646-6.232 6.646-3.387 0-5.999-2.482-5.999-6.438 0-4.188 2.741-6.646 6.206-6.646 3.595 0 6.025 2.611 6.025 6.438zm-9.93 0.129c0 2.741 1.577 4.811 3.802 4.811 2.171 0 3.8-2.043 3.8-4.862 0-2.119-1.06-4.809-3.748-4.809-2.69 0-3.854 2.482-3.854 4.86z"/>
		<path d="m111.8 434.34c0-1.293-0.025-2.353-0.104-3.388h1.992l0.103 2.018h0.078c0.698-1.19 1.862-2.302 3.93-2.302 1.707 0 3 1.035 3.543 2.508h0.051c0.389-0.697 0.879-1.24 1.396-1.629 0.75-0.568 1.577-0.879 2.767-0.879 1.655 0 4.11 1.086 4.11 5.431v7.368h-2.223v-7.084c0-2.404-0.879-3.853-2.715-3.853-1.292 0-2.3 0.956-2.689 2.068-0.103 0.31-0.181 0.724-0.181 1.137v7.731h-2.224v-7.498c0-1.99-0.879-3.438-2.611-3.438-1.423 0-2.457 1.137-2.818 2.275-0.129 0.336-0.181 0.724-0.181 1.111v7.55h-2.224v-9.126z"/>
		<path d="m134.62 437.62c0.052 3.078 2.017 4.344 4.292 4.344 1.629 0 2.611-0.283 3.465-0.646l0.388 1.629c-0.802 0.362-2.171 0.776-4.164 0.776-3.852 0-6.153-2.535-6.153-6.311 0-3.773 2.224-6.748 5.87-6.748 4.085 0 5.172 3.594 5.172 5.896 0 0.466-0.052 0.827-0.078 1.06h-8.792zm6.671-1.629c0.025-1.447-0.596-3.697-3.155-3.697-2.302 0-3.31 2.121-3.491 3.697h6.646z"/>
<g stroke="#000" stroke-miterlimit="10" stroke-width="2">
	<g opacity=".5">
		<polygon points="240.89 426 187.03 318.5 240.89 211 348.59 211 402.45 318.5 348.59 426" fill="#009245"/>
		<path d="m349.48 427h-109.48l-54.572-109 54.572-109h109.48l54.576 109-54.576 109zm-107.7-2h105.93l53.138-106.5-53.138-106.5h-105.93l-53.136 106.5 53.136 106.5z"/>
	</g>
	<g opacity=".5">
		<polygon points="45.886 1022 -7.968 914.5 45.886 807 153.59 807 207.45 914.5 153.59 1022" fill="#009245"/>
		<path d="m154.48 1023h-109.48l-54.572-109 54.572-109h109.48l54.576 109-54.576 109zm-107.7-2h105.93l53.138-106.5-53.138-106.5h-105.93l-53.136 106.5 53.136 106.5z"/>
	</g>
	<g opacity=".3">
		<polygon points="234.89 1138 181.03 1030.5 234.89 923 342.59 923 396.45 1030.5 342.59 1138" fill="#009245"/>
		<path d="m343.48 1139h-109.48l-54.572-109 54.572-109h109.48l54.576 109-54.576 109zm-107.7-2h105.93l53.138-106.5-53.138-106.5h-105.93l-53.136 106.5 53.136 106.5z"/>
	</g>
	<g opacity=".3">
		<polygon points="56.886 308 3.032 200.5 56.886 93 164.59 93 218.45 200.5 164.59 308" fill="#009245"/>
		<path d="M165.477,309H55.998L1.426,200L55.998,91h109.479l54.576,109    L165.477,309z M57.773,307h105.93l53.138-106.5L163.703,94H57.773L4.637,200.5L57.773,307z"/>
	</g>
	<g opacity=".3">
		<polygon points="240.89 190 187.03 82.5 240.89 -25 348.59 -25 402.45 82.5 348.59 190" fill="#009245"/>
		<path d="m349.48 191h-109.48l-54.572-109 54.572-109h109.48l54.576 109-54.576 109zm-107.7-2h105.93l53.138-106.5-53.138-106.5h-105.93l-53.136 106.5 53.136 106.5z"/>
	</g>
	<g opacity=".3">
		<polygon points="48.886 1261 -4.968 1153.5 48.886 1046 156.59 1046 210.45 1153.5 156.59 1261" fill="#009245"/>
		<path d="m157.48 1262h-109.48l-54.572-109 54.572-109h109.48l54.576 109-54.576 109zm-107.7-2h105.93l53.138-106.5-53.138-106.5h-105.93l-53.136 106.5 53.136 106.5z"/>
	</g>
	<g opacity=".2">
		<polygon points="240.89 1370 187.03 1262.5 240.89 1155 348.59 1155 402.45 1262.5 348.59 1370" fill="#009245"/>
		<path d="m349.48 1371h-109.48l-54.572-109 54.572-109h109.48l54.576 109-54.576 109zm-107.7-2h105.93l53.138-106.5-53.138-106.5h-105.93l-53.136 106.5 53.136 106.5z"/>
	</g>
	<g opacity=".2">
		<polygon points="54.886 81 1.032 -26.5 54.886 -134 162.59 -134 216.45 -26.5 162.59 81" fill="#009245"/>
		<path d="M163.477,82H53.998L-0.574-27l54.572-109h109.479l54.576,109    L163.477,82z M55.773,80h105.93l53.138-106.5L161.703-133H55.773L2.637-26.5L55.773,80z"/>
	</g>
</g>
</svg>
